# xmcd CD database file
#
# Track frame offsets:
#	150
#	20107
#	46535
#	64932
#	84542
#	103925
#	124772
#	149265
#	167850
#	186580
#	204250
#
# Disc length: 3004 seconds
#
# Revision: 12
# Processed by: cddbd v1.5.2PL0 Copyright (c) Steve Scherf et al.
# Submitted via: CDex 1.70beta3
#
DISCID=9e0bba0b
DTITLE=シャ乱Q - シングルベスト10
DYEAR=1996
DGENRE=J-Pop
TTITLE0=18ヶ月
TTITLE1=ラーメン大好き小池さんの唄
TTITLE2=とってもメリーゴーランド
TTITLE3=友達はいますか
TTITLE4=上・京・物・語
TTITLE5=恋をするだけ無駄なんて
TTITLE6=シングルベッド
TTITLE7=ズルい女
TTITLE8=空を見なよ
TTITLE9=My Babe 君が眠るまで
TTITLE10=いいわけ
EXTD=YEAR: 1996
EXTT0=
EXTT1=
EXTT2=
EXTT3=
EXTT4=
EXTT5=
EXTT6=
EXTT7=
EXTT8=
EXTT9=
EXTT10=
PLAYORDER=
